HIERARCHY
ROOT Root
{
  OFFSET 0.0 0.0 0.0
  CHANNELS 6 Xposition Yposition Zposition Zrotation Yrotation Xrotation
  JOINT Hips
  {
    OFFSET 0.0 100.0 0.0
    CHANNELS 6 Xposition Yposition Zposition Zrotation Yrotation Xrotation
    JOINT Spine1
    {
      OFFSET 5.003913 -0.037094 -0.013727
      CHANNELS 3 Zrotation Yrotation Xrotation
      JOINT Spine2
      {
        OFFSET 7.125363 -1e-06 0.0
        CHANNELS 3 Zrotation Yrotation Xrotation
        JOINT Chest
        {
          OFFSET 7.594027 1e-06 0.0
          CHANNELS 3 Zrotation Yrotation Xrotation
          JOINT Neck1
          {
            OFFSET 26.313086 -0.460272 -0.181672
            CHANNELS 3 Zrotation Yrotation Xrotation
            JOINT Neck2
            {
              OFFSET 8.045911 0.0 0.0
              CHANNELS 3 Zrotation Yrotation Xrotation
              JOINT Head
              {
                OFFSET 6.432774 0.0 0.0
                CHANNELS 3 Zrotation Yrotation Xrotation
                JOINT HeadEnd
                {
                  OFFSET 16.169773 0.06451 0.00362
                  CHANNELS 3 Zrotation Yrotation Xrotation
                }
                JOINT Jaw
                {
                  OFFSET 0.108741 3.12938 0.002639
                  CHANNELS 3 Zrotation Yrotation Xrotation
                }
                JOINT LeftEye
                {
                  OFFSET 4.45173 8.166359 3.206392
                  CHANNELS 3 Zrotation Yrotation Xrotation
                }
                JOINT RightEye
                {
                  OFFSET 4.436895 8.135758 -3.222429
                  CHANNELS 3 Zrotation Yrotation Xrotation
                }
              }
            }
          }
          JOINT LeftShoulder
          {
            OFFSET 23.218927 5.195579 1.621656
            CHANNELS 3 Zrotation Yrotation Xrotation
            JOINT LeftArm
            {
              OFFSET 15.902118 2e-06 -2e-06
              CHANNELS 3 Zrotation Yrotation Xrotation
              JOINT LeftForeArm
              {
                OFFSET 28.739307 0.0 -1e-06
                CHANNELS 3 Zrotation Yrotation Xrotation
                JOINT LeftHand
                {
                  OFFSET 27.093981 -4e-06 0.0
                  CHANNELS 3 Zrotation Yrotation Xrotation
                  JOINT LeftHandThumb1
                  {
                    OFFSET 2.276781 3.380274 0.83384
                    CHANNELS 3 Zrotation Yrotation Xrotation
                    JOINT LeftHandThumb2
                    {
                      OFFSET 4.705309 -1e-06 -1e-06
                      CHANNELS 3 Zrotation Yrotation Xrotation
                      JOINT LeftHandThumb3
                      {
                        OFFSET 2.798515 0.0 3e-06
                        CHANNELS 3 Zrotation Yrotation Xrotation
                        JOINT LeftHandThumbEnd
                        {
                          OFFSET 3.180793 4e-06 -4e-06
                          CHANNELS 3 Zrotation Yrotation Xrotation
                        }
                      }
                    }
                  }
                  JOINT LeftHandIndex1
                  {
                    OFFSET 3.247786 2.352677 0.137192
                    CHANNELS 3 Zrotation Yrotation Xrotation
                    JOINT LeftHandIndex2
                    {
                      OFFSET 6.367095 1e-06 0.0
                      CHANNELS 3 Zrotation Yrotation Xrotation
                      JOINT LeftHandIndex3
                      {
                        OFFSET 3.662364 0.0 0.0
                        CHANNELS 3 Zrotation Yrotation Xrotation
                        JOINT LeftHandIndex4
                        {
                          OFFSET 2.329242 4e-06 -4e-06
                          CHANNELS 3 Zrotation Yrotation Xrotation
                          JOINT LeftHandIndexEnd
                          {
                            OFFSET 2.767823 1e-06 0.0
                            CHANNELS 3 Zrotation Yrotation Xrotation
                          }
                        }
                      }
                    }
                  }
                  JOINT LeftHandMiddle1
                  {
                    OFFSET 3.163612 0.945023 -0.406112
                    CHANNELS 3 Zrotation Yrotation Xrotation
                    JOINT LeftHandMiddle2
                    {
                      OFFSET 6.276789 3e-06 0.0
                      CHANNELS 3 Zrotation Yrotation Xrotation
                      JOINT LeftHandMiddle3
                      {
                        OFFSET 4.35652 -1e-06 4e-06
                        CHANNELS 3 Zrotation Yrotation Xrotation
                        JOINT LeftHandMiddle4
                        {
                          OFFSET 2.996877 0.0 8e-06
                          CHANNELS 3 Zrotation Yrotation Xrotation
                          JOINT LeftHandMiddleEnd
                          {
                            OFFSET 2.323256 3e-06 -4e-06
                            CHANNELS 3 Zrotation Yrotation Xrotation
                          }
                        }
                      }
                    }
                  }
                  JOINT LeftHandRing1
                  {
                    OFFSET 2.882606 -0.309162 0.107445
                    CHANNELS 3 Zrotation Yrotation Xrotation
                    JOINT LeftHandRing2
                    {
                      OFFSET 6.033198 0.0 4e-06
                      CHANNELS 3 Zrotation Yrotation Xrotation
                      JOINT LeftHandRing3
                      {
                        OFFSET 4.350578 3e-06 0.0
                        CHANNELS 3 Zrotation Yrotation Xrotation
                        JOINT LeftHandRing4
                        {
                          OFFSET 2.651321 2e-06 -7e-06
                          CHANNELS 3 Zrotation Yrotation Xrotation
                          JOINT LeftHandRingEnd
                          {
                            OFFSET 1.937663 1e-06 -4e-06
                            CHANNELS 3 Zrotation Yrotation Xrotation
                          }
                        }
                      }
                    }
                  }
                  JOINT LeftHandPinky1
                  {
                    OFFSET 2.865315 -1.525436 0.575687
                    CHANNELS 3 Zrotation Yrotation Xrotation
                    JOINT LeftHandPinky2
                    {
                      OFFSET 5.54936 1e-06 -8e-06
                      CHANNELS 3 Zrotation Yrotation Xrotation
                      JOINT LeftHandPinky3
                      {
                        OFFSET 3.070974 0.0 -4e-06
                        CHANNELS 3 Zrotation Yrotation Xrotation
                        JOINT LeftHandPinky4
                        {
                          OFFSET 1.549672 1e-06 0.0
                          CHANNELS 3 Zrotation Yrotation Xrotation
                          JOINT LeftHandPinkyEnd
                          {
                            OFFSET 1.952123 0.0 0.0
                            CHANNELS 3 Zrotation Yrotation Xrotation
                          }
                        }
                      }
                    }
                  }
                }
              }
            }
          }
          JOINT RightShoulder
          {
            OFFSET 23.161716 5.296122 -1.380114
            CHANNELS 3 Zrotation Yrotation Xrotation
            JOINT RightArm
            {
              OFFSET -16.027195 -2e-06 1.1e-05
              CHANNELS 3 Zrotation Yrotation Xrotation
              JOINT RightForeArm
              {
                OFFSET -28.736639 4e-06 2e-06
                CHANNELS 3 Zrotation Yrotation Xrotation
                JOINT RightHand
                {
                  OFFSET -27.133619 6e-06 0.0
                  CHANNELS 3 Zrotation Yrotation Xrotation
                  JOINT RightHandThumb1
                  {
                    OFFSET -2.274328 -3.351035 -0.83067
                    CHANNELS 3 Zrotation Yrotation Xrotation
                    JOINT RightHandThumb2
                    {
                      OFFSET -4.703594 -3e-06 2e-06
                      CHANNELS 3 Zrotation Yrotation Xrotation
                      JOINT RightHandThumb3
                      {
                        OFFSET -2.794935 -4e-06 -3e-06
                        CHANNELS 3 Zrotation Yrotation Xrotation
                        JOINT RightHandThumbEnd
                        {
                          OFFSET -3.183852 4e-06 1e-06
                          CHANNELS 3 Zrotation Yrotation Xrotation
                        }
                      }
                    }
                  }
                  JOINT RightHandIndex1
                  {
                    OFFSET -3.253496 -2.33755 -0.127667
                    CHANNELS 3 Zrotation Yrotation Xrotation
                    JOINT RightHandIndex2
                    {
                      OFFSET -6.344434 0.0 0.0
                      CHANNELS 3 Zrotation Yrotation Xrotation
                      JOINT RightHandIndex3
                      {
                        OFFSET -3.654871 0.0 -8e-06
                        CHANNELS 3 Zrotation Yrotation Xrotation
                        JOINT RightHandIndex4
                        {
                          OFFSET -2.327586 -1e-06 0.0
                          CHANNELS 3 Zrotation Yrotation Xrotation
                          JOINT RightHandIndexEnd
                          {
                            OFFSET -2.770001 3e-06 8e-06
                            CHANNELS 3 Zrotation Yrotation Xrotation
                          }
                        }
                      }
                    }
                  }
                  JOINT RightHandMiddle1
                  {
                    OFFSET -3.168223 -0.944764 0.411762
                    CHANNELS 3 Zrotation Yrotation Xrotation
                    JOINT RightHandMiddle2
                    {
                      OFFSET -6.266691 -1e-06 -4e-06
                      CHANNELS 3 Zrotation Yrotation Xrotation
                      JOINT RightHandMiddle3
                      {
                        OFFSET -4.348901 0.0 0.0
                        CHANNELS 3 Zrotation Yrotation Xrotation
                        JOINT RightHandMiddle4
                        {
                          OFFSET -3.00024 2e-06 -4e-06
                          CHANNELS 3 Zrotation Yrotation Xrotation
                          JOINT RightHandMiddleEnd
                          {
                            OFFSET -2.321477 -4e-06 -4e-06
                            CHANNELS 3 Zrotation Yrotation Xrotation
                          }
                        }
                      }
                    }
                  }
                  JOINT RightHandRing1
                  {
                    OFFSET -2.885654 0.293261 -0.119232
                    CHANNELS 3 Zrotation Yrotation Xrotation
                    JOINT RightHandRing2
                    {
                      OFFSET -6.032835 -1e-06 -4e-06
                      CHANNELS 3 Zrotation Yrotation Xrotation
                      JOINT RightHandRing3
                      {
                        OFFSET -4.33881 0.0 -4e-06
                        CHANNELS 3 Zrotation Yrotation Xrotation
                        JOINT RightHandRing4
                        {
                          OFFSET -2.654903 -4e-06 -4e-06
                          CHANNELS 3 Zrotation Yrotation Xrotation
                          JOINT RightHandRingEnd
                          {
                            OFFSET -1.935122 0.0 4e-06
                            CHANNELS 3 Zrotation Yrotation Xrotation
                          }
                        }
                      }
                    }
                  }
                  JOINT RightHandPinky1
                  {
                    OFFSET -2.866241 1.503904 -0.60527
                    CHANNELS 3 Zrotation Yrotation Xrotation
                    JOINT RightHandPinky2
                    {
                      OFFSET -5.553177 -2e-06 0.0
                      CHANNELS 3 Zrotation Yrotation Xrotation
                      JOINT RightHandPinky3
                      {
                        OFFSET -3.062664 -1e-06 -4e-06
                        CHANNELS 3 Zrotation Yrotation Xrotation
                        JOINT RightHandPinky4
                        {
                          OFFSET -1.546529 2e-06 4e-06
                          CHANNELS 3 Zrotation Yrotation Xrotation
                          JOINT RightHandPinkyEnd
                          {
                            OFFSET -1.952341 0.0 -4e-06
                            CHANNELS 3 Zrotation Yrotation Xrotation
                          }
                        }
                      }
                    }
                  }
                }
              }
            }
          }
        }
      }
    }
    JOINT LeftLeg
    {
      OFFSET -8.443107 2.567604 10.043214
      CHANNELS 3 Zrotation Yrotation Xrotation
      JOINT LeftShin
      {
        OFFSET 43.229198 1e-06 -1e-06
        CHANNELS 3 Zrotation Yrotation Xrotation
        JOINT LeftFoot
        {
          OFFSET 42.298611 1e-06 1e-06
          CHANNELS 3 Zrotation Yrotation Xrotation
          JOINT LeftToeBase
          {
            OFFSET 14.165858 1e-06 0.0
            CHANNELS 3 Zrotation Yrotation Xrotation
            JOINT LeftToeEnd
            {
              OFFSET 6.7141 -0.234461 0.0
              CHANNELS 3 Zrotation Yrotation Xrotation
            }
          }
        }
      }
    }
    JOINT RightLeg
    {
      OFFSET -8.303923 2.592729 -10.047278
      CHANNELS 3 Zrotation Yrotation Xrotation
      JOINT RightShin
      {
        OFFSET -43.369682 0.0 1e-06
        CHANNELS 3 Zrotation Yrotation Xrotation
        JOINT RightFoot
        {
          OFFSET -42.260784 4e-06 2e-06
          CHANNELS 3 Zrotation Yrotation Xrotation
          JOINT RightToeBase
          {
            OFFSET -14.222245 -2e-06 -1e-06
            CHANNELS 3 Zrotation Yrotation Xrotation
            JOINT RightToeEnd
            {
              OFFSET -6.660062 0.232574 -2e-06
              CHANNELS 3 Zrotation Yrotation Xrotation
            }
          }
        }
      }
    }
  }
}
MOTION
Frames: 4
Frame Time: 0.03333333333333333
0.0 0.0 0.0 0.0 -0.0 0.0 2.508741 99.286255 4.596966 89.525795 0.627162 90.158417 -3.737685 1.287395 -0.394138 -12.517888 -0.44157 -0.184876 18.732868 -0.565143 -2.775746 25.745214 -0.954282 2.481657 -2.562995 -0.512533 -2.097884 -36.614372 -0.997274 -3.088265 6e-06 -0.0 0.0 0.059755 0.030903 0.036162 0.112054 0.007829 0.033348 0.086511 0.051632 0.041458 -118.875603 -75.294998 138.905426 50.528328 -53.35228 9.137197 18.877983 0.205127 -0.102995 -2.314467 3.877662 3.567768 17.636633 -26.322735 52.411201 -19.466665 -14.395602 29.410395 -0.0 -8.774824 -2e-06 16.030617 -17.88817 6.106826 -0.609775 -1.795655 -3.889327 -4.80709 -11.046811 -2.937847 5e-06 -20.976019 -3e-06 -5.019971 -25.03356 -4.03188 6e-06 -1e-06 -0.0 -10.634535 -5.686969 -3.565585 10.573277 -17.922951 -3.113901 3e-06 -13.821208 0.0 -0.50178 -31.181505 -4.027013 -11.496677 -59.79998 7.401878 -13.982716 -7.150198 -2.875042 13.772732 -8.401492 -3.218242 0.347734 -34.211555 0.771653 -0.963032 -17.73337 2.621022 1e-06 -1e-06 1e-06 -17.34642 -20.095217 -4.201779 21.757561 -1.638376 3.866426 1e-06 -6.338824 -1e-06 -1.69759 -22.591742 -6.194004 -1e-06 -5e-06 -1e-06 34.098503 -72.687508 167.290894 37.948597 -53.718491 -2.216622 27.284271 -0.095793 0.092657 -5.03554 10.280457 3.530766 22.182119 -20.375895 49.933327 -16.701817 -16.743532 28.476538 -2e-06 -12.690603 -2e-06 16.147856 -17.783916 2.644681 -0.105918 -1.513856 -4.275881 -5.039042 -5.612873 -2.953558 2e-06 -11.020527 -3e-06 -6.1113 -15.895338 -3.840472 0.0 -0.0 -1e-06 -10.28337 -5.680289 -4.341839 11.028295 -11.302406 -2.372632 -1.384269 -14.238583 -6.320122 -0.62544 -26.924191 -3.827604 -3.964632 -49.57753 -3.896398 -13.708526 -7.363478 -3.720938 18.141148 -14.052739 -3.242674 6e-06 -18.787271 -3e-06 -0.429711 -8.456044 2.555504 -0.0 -1e-06 -2e-06 -15.923539 -20.09449 -5.473588 30.419218 -7.190827 1.735926 4e-06 -8.162927 0.0 -1.8619 -22.861469 -6.167949 -1e-06 -1e-06 -1e-06 173.366562 -6.457209 -1.204298 19.932566 -0.066761 0.074101 -81.882355 3.365919 -5.747671 -10.487603 1.638105 2.008527 -0.999998 -0.0 -0.0 -6.682844 -3.796525 -5.677353 20.699652 -0.028015 0.053942 -81.56955 -5.422654 -8.825262 -10.163824 0.795286 1.576165 -1.000002 -0.0 -0.0 
0.0 0.0 0.0 0.0 -0.0 0.0 2.479814 99.306862 4.603308 89.481857 0.655695 90.104675 -3.742719 1.283774 -0.430612 -12.507716 -0.409545 -0.115486 18.722149 -0.539119 -2.812241 25.804188 -1.006843 2.482907 -2.546343 -0.501452 -2.048534 -36.505913 -1.006844 -3.067389 6e-06 -0.0 0.0 0.054694 0.031288 0.066016 0.099476 0.010902 0.063202 0.076083 0.049283 0.070972 -118.753754 -75.292953 138.812469 50.646225 -53.39716 8.966969 18.842184 0.175048 -0.122624 -2.257361 3.904823 3.586156 17.636633 -26.322735 52.411201 -19.466663 -14.395598 29.410389 -1e-06 -8.774822 -1e-06 16.039845 -17.873913 6.082529 -0.609777 -1.795654 -3.88933 -4.807089 -11.046813 -2.93785 3e-06 -20.976019 -2e-06 -5.019974 -25.033562 -4.03188 6e-06 0.0 3e-06 -10.634537 -5.686972 -3.565589 10.573275 -17.922953 -3.113902 3e-06 -13.821211 -1e-06 -0.501779 -31.181511 -4.027015 -11.470671 -59.839153 7.446511 -13.982716 -7.150198 -2.875043 13.772731 -8.401493 -3.218241 0.347734 -34.211555 0.771655 -0.963031 -17.73337 2.621023 2e-06 2e-06 0.0 -17.346422 -20.095221 -4.201783 21.757561 -1.638374 3.866429 1e-06 -6.338825 -2e-06 -1.697592 -22.591751 -6.194006 -1e-06 -3e-06 -1e-06 34.240532 -72.688026 167.185303 37.973721 -53.807938 -2.539098 27.262421 -0.149212 0.081805 -4.896948 10.284744 3.537486 22.182116 -20.375889 49.933319 -16.701811 -16.743528 28.476528 -3e-06 -12.6906 -2e-06 16.148087 -17.7549 2.640074 -0.10592 -1.513857 -4.275882 -5.039041 -5.612871 -2.953557 3e-06 -11.020523 -3e-06 -6.111296 -15.89533 -3.840471 -0.0 0.0 1e-06 -10.283369 -5.680287 -4.341838 11.028292 -11.302403 -2.372632 -1.384268 -14.238579 -6.320123 -0.62544 -26.924185 -3.8276 -3.97655 -49.682259 -3.842163 -13.708523 -7.363475 -3.720937 18.141146 -14.052738 -3.242673 6e-06 -18.787268 -1e-06 -0.429711 -8.456041 2.555504 0.0 0.0 1e-06 -15.923532 -20.094482 -5.473587 30.419207 -7.190824 1.735925 4e-06 -8.162926 -1e-06 -1.861901 -22.861469 -6.167941 -0.0 -4e-06 -4e-06 173.486435 -6.523186 -1.181951 19.784916 -0.054249 0.121551 -81.829346 3.333854 -5.85598 -10.626094 1.655297 2.006039 -1.0 -0.0 0.0 -6.55571 -3.716414 -5.66762 20.493814 -0.025528 0.070322 -81.467422 -5.455173 -8.826107 -10.293515 0.794325 1.574178 -1.000003 0.0 0.0 
0.0 0.0 0.0 0.0 -0.0 0.0 2.462092 99.303795 4.642776 89.443672 0.666968 90.012268 -3.75812 1.285002 -0.462037 -12.525105 -0.390487 -0.083253 18.768244 -0.509342 -2.796671 25.835321 -1.09998 2.490751 -2.569059 -0.474133 -2.027897 -36.366508 -1.007832 -3.049368 5e-06 0.0 0.0 0.050495 0.032425 0.077409 0.081501 0.010531 0.077779 0.062085 0.05173 0.078728 -118.628174 -75.280258 138.734161 50.724533 -53.428528 8.915765 18.907742 0.151764 -0.135462 -2.221795 3.89044 3.482355 17.636631 -26.32272 52.411171 -19.466654 -14.395597 29.410381 -0.0 -8.774821 -1e-06 16.062029 -17.900246 6.069912 -0.609775 -1.795651 -3.889326 -4.807088 -11.046807 -2.937847 5e-06 -20.976009 -3e-06 -5.019972 -25.033546 -4.031878 7e-06 -3e-06 -1e-06 -10.634534 -5.686969 -3.565585 10.573272 -17.922945 -3.113901 3e-06 -13.821203 -1e-06 -0.501777 -31.181488 -4.027014 -11.514197 -59.839924 7.457012 -13.982712 -7.150195 -2.875041 13.772727 -8.401488 -3.218237 0.347735 -34.211536 0.771652 -0.963028 -17.733362 2.621019 1e-06 0.0 1e-06 -17.346418 -20.095207 -4.201776 21.757557 -1.638375 3.866429 2e-06 -6.338822 -2e-06 -1.697592 -22.59174 -6.194003 -2e-06 -4e-06 -3e-06 34.346653 -72.657539 167.094345 37.967285 -53.854183 -2.779121 27.248026 -0.18866 0.052871 -4.764085 10.272652 3.56519 22.18211 -20.375885 49.933308 -16.701807 -16.743523 28.476519 -3e-06 -12.690597 -0.0 16.13158 -17.707731 2.660793 -0.105919 -1.513856 -4.27588 -5.039039 -5.612868 -2.953554 3e-06 -11.020519 -2e-06 -6.111295 -15.895328 -3.840471 -0.0 0.0 1e-06 -10.283368 -5.680285 -4.341836 11.02829 -11.302402 -2.372632 -1.384268 -14.238577 -6.320122 -0.625438 -26.924183 -3.827601 -3.99222 -49.703461 -3.801524 -13.708521 -7.363472 -3.720938 18.141146 -14.052735 -3.242675 6e-06 -18.787266 -2e-06 -0.429712 -8.456041 2.555506 0.0 -1e-06 -2e-06 -15.92353 -20.094479 -5.473584 30.419197 -7.190824 1.735925 3e-06 -8.162924 -0.0 -1.8619 -22.861467 -6.167941 -0.0 -4e-06 -1e-06 173.532974 -6.57392 -1.169215 19.811956 -0.054636 0.148988 -81.889397 3.26991 -5.902013 -10.672346 1.656663 2.005684 -0.999999 0.0 0.0 -6.518322 -3.656687 -5.611787 20.465469 -0.018109 0.069068 -81.46627 -5.513162 -8.881804 -10.330682 0.799017 1.573156 -1.000003 0.0 0.0 
0.0 0.0 0.0 0.0 -0.0 0.0 2.446694 99.303802 4.673896 89.390167 0.67476 89.920952 -3.768088 1.292317 -0.483624 -12.546121 -0.374039 -0.082488 18.812443 -0.474712 -2.753395 25.853916 -1.217183 2.491159 -2.59791 -0.456402 -1.985899 -36.281418 -0.989964 -3.046849 5e-06 -0.0 0.0 0.046707 0.032352 0.079819 0.063981 0.007894 0.082676 0.047916 0.054045 0.078084 -118.462341 -75.263664 138.614441 50.788277 -53.49683 9.004581 19.01432 0.170019 -0.131445 -2.193005 3.852221 3.420565 17.636627 -26.322733 52.41119 -19.466663 -14.395596 29.410389 -0.0 -8.774821 -1e-06 16.058489 -17.912851 6.067184 -0.609776 -1.795653 -3.889325 -4.807089 -11.046812 -2.93785 4e-06 -20.976019 -3e-06 -5.019972 -25.033562 -4.031878 7e-06 1e-06 -0.0 -10.634533 -5.68697 -3.565585 10.573272 -17.922951 -3.113904 4e-06 -13.82121 -1e-06 -0.501779 -31.181507 -4.027014 -11.533221 -59.831684 7.436101 -13.982714 -7.150199 -2.875041 13.77273 -8.401492 -3.21824 0.347733 -34.211555 0.771651 -0.96303 -17.73337 2.62102 0.0 0.0 0.0 -17.346418 -20.095219 -4.201781 21.757557 -1.638374 3.866427 1e-06 -6.338824 -2e-06 -1.697591 -22.591747 -6.194005 -0.0 -4e-06 0.0 34.43718 -72.635452 167.002502 37.934082 -53.89986 -2.81018 27.223539 -0.173546 0.036329 -4.684926 10.165522 3.533018 22.182119 -20.375895 49.933323 -16.701817 -16.74353 28.476534 -3e-06 -12.690603 0.0 16.117643 -17.663424 2.683718 -0.10592 -1.513857 -4.275883 -5.039041 -5.612872 -2.953555 3e-06 -11.020525 -3e-06 -6.111299 -15.895334 -3.84047 -0.0 0.0 -1e-06 -10.283371 -5.680288 -4.341839 11.028295 -11.302406 -2.372635 -1.38427 -14.238583 -6.32012 -0.625437 -26.924194 -3.827601 -4.020154 -49.676945 -3.759917 -13.708527 -7.363478 -3.720942 18.141153 -14.052739 -3.242676 5e-06 -18.787271 -2e-06 -0.429712 -8.456044 2.555505 0.0 0.0 -1e-06 -15.923536 -20.094486 -5.473587 30.419218 -7.190826 1.735925 3e-06 -8.162927 -0.0 -1.861901 -22.861473 -6.167945 -0.0 -2e-06 -2e-06 173.569305 -6.642417 -1.188959 19.839897 -0.061367 0.166348 -81.937866 3.189543 -5.933873 -10.684676 1.648674 2.002941 -0.999999 -0.0 -0.0 -6.471185 -3.575347 -5.5366 20.397789 -0.01183 0.055205 -81.44017 -5.566272 -8.950002 -10.324703 0.797116 1.571018 -1.000002 -0.0 -0.0 
